<?xml version="1.0" encoding="UTF-8" standalone="no"?>
<!-- Created with Inkscape (http://www.inkscape.org/) -->

<svg
   width="140"
   height="160"
   viewBox="0 0 37.041668 42.33334"
   version="1.1"
   id="svg5"
   inkscape:version="1.1.2 (0a00cf5339, 2022-02-04, custom)"
   sodipodi:docname="tuppel2.svg"
   inkscape:export-filename="/home/jonathf/tuppel2.png"
   inkscape:export-xdpi="256"
   inkscape:export-ydpi="256"
   xmlns:inkscape="http://www.inkscape.org/namespaces/inkscape"
   xmlns:sodipodi="http://sodipodi.sourceforge.net/DTD/sodipodi-0.dtd"
   xmlns="http://www.w3.org/2000/svg"
   xmlns:svg="http://www.w3.org/2000/svg">
  <sodipodi:namedview
     id="namedview7"
     pagecolor="#ffffff"
     bordercolor="#666666"
     borderopacity="1.0"
     inkscape:pageshadow="2"
     inkscape:pageopacity="0.0"
     inkscape:pagecheckerboard="0"
     inkscape:document-units="mm"
     showgrid="false"
     units="px"
     width="100px"
     inkscape:zoom="3.623347"
     inkscape:cx="149.44746"
     inkscape:cy="53.541656"
     inkscape:window-width="2160"
     inkscape:window-height="1314"
     inkscape:window-x="0"
     inkscape:window-y="1476"
     inkscape:window-maximized="1"
     inkscape:current-layer="layer1"
     height="160px" />
  <defs
     id="defs2">
    <rect
       x="99.62571"
       y="1.3581085"
       width="429.18723"
       height="171.67351"
       id="rect3756" />
  </defs>
  <g
     inkscape:label="Layer 1"
     inkscape:groupmode="layer"
     id="layer1">
    <g
       inkscape:label="Layer 1"
       id="layer1-2"
       transform="translate(5.2824075,2.969999)"
       style="stroke:#2d3c46;stroke-opacity:1">
      <path
         style="opacity:1;fill:none;fill-opacity:1;stroke:#de935f;stroke-width:3.175;stroke-miterlimit:100;stroke-dasharray:none;stroke-dashoffset:0;stroke-opacity:1"
         id="path65-5-5"
         transform="scale(-1)"
         sodipodi:type="arc"
         sodipodi:cx="-13.49375"
         sodipodi:cy="-13.49375"
         sodipodi:rx="7.1440001"
         sodipodi:ry="7.1437502"
         sodipodi:start="1.8325957"
         sodipodi:end="4.4505896"
         sodipodi:arc-type="arc"
         d="m -15.342753,-6.5934168 a 7.1440001,7.1437502 0 0 1 -5.294997,-6.9003332 7.1440001,7.1437502 0 0 1 5.294997,-6.900332"
         sodipodi:open="true" />
      <path
         style="fill:none;fill-opacity:1;stroke:#2d3c46;stroke-width:1.5875;stroke-miterlimit:100;stroke-dasharray:none;stroke-dashoffset:0;stroke-opacity:1"
         id="path65-5-5-9"
         transform="scale(-1)"
         sodipodi:type="arc"
         sodipodi:cx="-13.49375"
         sodipodi:cy="-13.49375"
         sodipodi:rx="6.3499999"
         sodipodi:ry="6.3499999"
         sodipodi:start="4.8869219"
         sodipodi:end="1.3962634"
         sodipodi:arc-type="arc"
         d="m -12.391084,-19.747279 a 6.3499999,6.3499999 0 0 1 5.2473343,6.253529 6.3499999,6.3499999 0 0 1 -5.2473343,6.2535295"
         sodipodi:open="true" />
      <path
         style="fill:none;fill-opacity:1;stroke:#2d3c46;stroke-width:3.175;stroke-miterlimit:100;stroke-dasharray:none;stroke-dashoffset:0;stroke-opacity:1"
         id="path65-5-5-7-5-3"
         transform="scale(-1)"
         sodipodi:type="arc"
         sodipodi:cx="-13.493751"
         sodipodi:cy="-13.493751"
         sodipodi:rx="11.90625"
         sodipodi:ry="11.90625"
         sodipodi:start="4.8869219"
         sodipodi:end="1.3962634"
         sodipodi:arc-type="arc"
         d="m -11.426252,-25.219118 a 11.90625,11.90625 0 0 1 9.8387514,11.725367 11.90625,11.90625 0 0 1 -9.8387514,11.7253677"
         sodipodi:open="true" />
      <path
         style="fill:none;fill-opacity:1;stroke:#2d3c46;stroke-width:1.5875;stroke-miterlimit:100;stroke-dasharray:none;stroke-dashoffset:0;stroke-opacity:1"
         id="path65-5-5-7-5-3-6"
         transform="scale(-1)"
         sodipodi:type="arc"
         sodipodi:cx="-13.493751"
         sodipodi:cy="-13.493751"
         sodipodi:rx="11.1125"
         sodipodi:ry="11.1125"
         sodipodi:start="1.8325957"
         sodipodi:end="4.4505896"
         sodipodi:arc-type="arc"
         d="m -16.369877,-2.7598996 a 11.1125,11.1125 0 0 1 -8.236374,-10.7338514 11.1125,11.1125 0 0 1 8.236374,-10.733851"
         sodipodi:open="true" />
      <path
         style="fill:none;stroke:#2d3c46;stroke-width:1.5589;stroke-linecap:round;stroke-linejoin:miter;stroke-miterlimit:4;stroke-dasharray:none;stroke-opacity:1"
         d="m 5.0317789,13.183901 4.7523149,-0.02863 z"
         id="path1269" />
    </g>
    <g
       aria-label="tuppel"
       transform="matrix(0.16225103,0,0,0.16225103,-13.545927,27.650745)"
       id="text3754"
       style="font-weight:600;font-size:61.3333px;line-height:1.25;font-family:Montserrat;-inkscape-font-specification:'Montserrat Semi-Bold';white-space:pre;shape-inside:url(#rect3756);fill:#2d3c46;fill-opacity:1">
      <path
         d="m 109.95432,64.099029 q -5.39732,0 -8.34131,-2.759999 -2.944004,-2.821331 -2.944004,-8.279995 V 23.680381 h 7.666664 v 29.194653 q 0,2.330666 1.16532,3.618666 1.22667,1.287999 3.37333,1.287999 2.576,0 4.29333,-1.349333 l 2.14667,5.458664 q -1.34933,1.104 -3.312,1.655999 -1.96266,0.552 -4.048,0.552 z M 93.271686,37.296375 v -6.133331 h 21.834634 v 6.133331 z"
         id="path24931"
         style="fill:#2d3c46;fill-opacity:1" />
      <path
         d="m 137.49294,64.099029 q -4.17066,0 -7.35998,-1.533333 -3.18933,-1.594665 -4.968,-4.783997 -1.77867,-3.250665 -1.77867,-8.15733 V 30.917711 h 7.66666 v 17.663992 q 0,4.415998 1.96266,6.623997 2.024,2.146666 5.704,2.146666 2.69866,0 4.66132,-1.104 2.024,-1.103999 3.128,-3.311999 1.16533,-2.207999 1.16533,-5.458664 V 30.917711 h 7.66665 v 32.751985 h -7.29865 V 54.8377 l 1.288,2.698666 q -1.656,3.189331 -4.84533,4.906664 -3.18932,1.655999 -6.99199,1.655999 z"
         id="path24933"
         style="fill:#2d3c46;fill-opacity:1" />
      <path
         d="m 183.5542,64.099029 q -3.98667,0 -7.29866,-1.839999 -3.25066,-1.839999 -5.21333,-5.519997 -1.90133,-3.741332 -1.90133,-9.44533 0,-5.76533 1.84,-9.445328 1.90133,-3.679998 5.152,-5.458665 3.25065,-1.839999 7.42132,-1.839999 4.84533,0 8.52532,2.085332 3.74133,2.085334 5.88799,5.826665 2.208,3.741331 2.208,8.831995 0,5.090664 -2.208,8.89333 -2.14666,3.741331 -5.88799,5.826664 -3.67999,2.085332 -8.52532,2.085332 z M 165.39956,75.568357 V 30.917711 h 7.29865 v 7.727997 l -0.24533,8.709329 0.61333,8.709329 v 19.503991 z m 17.29597,-18.031991 q 2.76,0 4.90667,-1.226666 2.20799,-1.226666 3.49598,-3.557333 1.288,-2.330665 1.288,-5.458664 0,-3.189331 -1.288,-5.458664 -1.28799,-2.330665 -3.49598,-3.557331 -2.14667,-1.226666 -4.90667,-1.226666 -2.76,0 -4.96799,1.226666 -2.20799,1.226666 -3.49599,3.557331 -1.288,2.269333 -1.288,5.458664 0,3.127999 1.288,5.458664 1.288,2.330667 3.49599,3.557333 2.20799,1.226666 4.96799,1.226666 z"
         id="path24935"
         style="fill:#2d3c46;fill-opacity:1" />
      <path
         d="m 225.62886,64.099029 q -3.98667,0 -7.29866,-1.839999 -3.25066,-1.839999 -5.21332,-5.519997 -1.90134,-3.741332 -1.90134,-9.44533 0,-5.76533 1.84,-9.445328 1.90133,-3.679998 5.15199,-5.458665 3.25066,-1.839999 7.42133,-1.839999 4.84532,0 8.52532,2.085332 3.74133,2.085334 5.88799,5.826665 2.20799,3.741331 2.20799,8.831995 0,5.090664 -2.20799,8.89333 -2.14666,3.741331 -5.88799,5.826664 -3.68,2.085332 -8.52532,2.085332 z M 207.47421,75.568357 V 30.917711 h 7.29867 v 7.727997 l -0.24534,8.709329 0.61333,8.709329 v 19.503991 z m 17.29598,-18.031991 q 2.75999,0 4.90666,-1.226666 2.208,-1.226666 3.496,-3.557333 1.28799,-2.330665 1.28799,-5.458664 0,-3.189331 -1.28799,-5.458664 -1.288,-2.330665 -3.496,-3.557331 -2.14667,-1.226666 -4.90666,-1.226666 -2.76,0 -4.96799,1.226666 -2.208,1.226666 -3.496,3.557331 -1.28799,2.269333 -1.28799,5.458664 0,3.127999 1.28799,5.458664 1.288,2.330667 3.496,3.557333 2.20799,1.226666 4.96799,1.226666 z"
         id="path24937"
         style="fill:#2d3c46;fill-opacity:1" />
      <path
         d="m 264.94353,64.099029 q -5.45866,0 -9.56799,-2.146666 -4.04799,-2.207998 -6.31732,-6.010663 -2.208,-3.802666 -2.208,-8.647997 0,-4.906664 2.14667,-8.647995 2.208,-3.802665 6.01065,-5.949331 3.864,-2.146666 8.77066,-2.146666 4.78399,0 8.52532,2.085332 3.74133,2.085334 5.88799,5.887998 2.14667,3.802665 2.14667,8.954662 0,0.490667 -0.0613,1.104 0,0.613333 -0.0613,1.165332 h -27.2933 v -5.090664 h 23.2453 l -3.00532,1.594666 q 0.0613,-2.821332 -1.16533,-4.967997 -1.22667,-2.146666 -3.37333,-3.373332 -2.08534,-1.226666 -4.84533,-1.226666 -2.82133,0 -4.96799,1.226666 -2.08533,1.226666 -3.312,3.434665 -1.16533,2.146666 -1.16533,5.090664 v 1.226666 q 0,2.943999 1.34933,5.213331 1.34933,2.269333 3.80266,3.495999 2.45334,1.226666 5.64266,1.226666 2.76,0 4.968,-0.858666 2.20799,-0.858666 3.92533,-2.698666 l 4.10932,4.722665 q -2.208,2.575998 -5.58132,3.986664 -3.312,1.349333 -7.60533,1.349333 z"
         id="path24939"
         style="fill:#2d3c46;fill-opacity:1" />
      <path
         d="M 287.69815,63.669696 V 18.160384 h 7.66665 v 45.509312 z"
         id="path24941"
         style="fill:#2d3c46;fill-opacity:1" />
    </g>
  </g>
</svg>
